<svg width="223" height="298" viewBox="0 0 223 298" fill="none" xmlns="http://www.w3.org/2000/svg">
<g clip-path="url(#clip0_2_285)">
<path d="M198.398 67.4076L223 53.1394V200.947L197.98 215.478L198.398 67.4076Z" fill="#CEFEE2"/>
<path d="M198.398 67.4077L197.98 215.478L105.825 162.339L106.249 14.2683L198.398 67.4077Z" fill="#FF7B7B"/>
<path d="M215.124 52.895L197.903 62.9257L112.27 13.4577L129.443 3.48657L215.124 52.895Z" fill="#F4F6F9"/>
<path opacity="0.2" d="M218.537 78.1654L202.223 87.5763L202.515 190.362L218.829 180.952L218.537 78.1654Z" fill="#33B6FF"/>
<path d="M223 53.1394L219.289 55.2969L202.11 65.268L198.392 67.4255L194.233 65.0236L106.243 14.2802L109.961 12.1226L198.476 61.3999L214.372 52.4659L127.134 2.15752L130.845 0L218.835 50.7434L223 53.1394Z" fill="#CEFEE2"/>
<path d="M173.378 81.944L197.98 67.6758V215.484L172.96 230.014L173.378 81.944Z" fill="#6540C1"/>
<path d="M173.378 81.944L172.961 230.014L80.8057 176.875L81.2293 28.8047L173.378 81.944Z" fill="#8C50FF"/>
<path d="M190.104 67.4315L172.883 77.4622L87.25 27.9942L104.423 18.0231L190.104 67.4315Z" fill="#F4F6F9"/>
<path opacity="0.2" d="M193.517 92.7018L177.203 102.113L177.495 204.899L193.809 195.488L193.517 92.7018Z" fill="#C1C4D3"/>
<path d="M197.98 67.6759L194.269 69.8334L177.09 79.8045L173.372 81.962L169.213 79.5601L81.2231 28.8167L84.9406 26.6591L173.456 75.9364L189.352 67.0024L102.114 16.694L105.825 14.5365L193.815 65.2799L197.98 67.6759Z" fill="#7040CC"/>
<path d="M202.826 138.665L205.684 137.002L205.236 294.99L202.372 296.653L202.826 138.665Z" fill="#33B6FF"/>
<path d="M107.365 80.305L9.04606 23.6075L6.18188 25.2704L104.501 81.9679L202.826 138.665L205.684 137.003L107.365 80.305Z" fill="#F7B933"/>
<path d="M202.826 138.665L202.372 296.653L104.053 239.956L88.2525 226.957L85.5614 229.287L5.73438 183.252L6.1819 25.2704L104.501 81.9679L202.826 138.665Z" fill="#33B6FF"/>
<path d="M106.876 88.4881L0.417692 43.651L0 191.715L72.8336 233.715C74.0802 234.433 75.4653 234.877 76.897 235.019C78.3287 235.161 79.7743 234.997 81.1377 234.539C82.5012 234.08 83.7513 233.337 84.8051 232.358C85.8589 231.38 86.6923 230.189 87.25 228.864V242.036L184.304 298L184.721 149.93L106.876 88.4881Z" fill="#F4F6F9"/>
<path d="M87.25 89.2391V242.036L184.304 298L184.722 149.93L87.25 89.2391Z" fill="#DADCE5"/>
<path d="M173.683 250.499L173.677 253.145L106.506 214.411L106.512 211.765L173.683 250.499Z" fill="#33B6FF"/>
<path d="M173.718 238.573L173.706 241.219L106.542 202.485L106.547 199.839L173.718 238.573Z" fill="#33B6FF"/>
<path d="M173.784 214.721L173.778 217.361L106.607 178.627L106.619 175.987L173.784 214.721Z" fill="#33B6FF"/>
<path d="M173.82 202.789L173.808 205.441L106.643 166.707L106.649 164.061L173.82 202.789Z" fill="#33B6FF"/>
<path d="M173.85 190.869L173.844 193.509L106.679 154.775L106.685 152.135L173.85 190.869Z" fill="#33B6FF"/>
<path d="M173.748 226.647L173.742 229.287L106.577 190.559L106.583 187.913L173.748 226.647Z" fill="#33B6FF"/>
<path d="M173.647 262.425L173.641 265.071L106.476 226.337L106.482 223.691L173.647 262.425Z" fill="#33B6FF"/>
<path d="M173.617 274.357L173.605 276.997L106.44 238.263L106.446 235.623L173.617 274.357Z" fill="#33B6FF"/>
<path d="M173.921 167.011L173.909 169.663L106.744 130.929L106.75 128.283L173.921 167.011Z" fill="#33B6FF"/>
<path d="M173.951 155.085L173.945 157.731L106.78 118.997L106.786 116.351L173.951 155.085Z" fill="#33B6FF"/>
<path d="M173.885 178.943L173.879 181.583L106.708 142.849L106.72 140.209L173.885 178.943Z" fill="#33B6FF"/>
<path d="M76.7957 218.607L76.7897 221.253L9.62476 182.519L9.63072 179.879L76.7957 218.607Z" fill="#33B6FF"/>
<path d="M76.8314 206.681L76.8254 209.321L9.65454 170.587L9.66648 167.947L76.8314 206.681Z" fill="#33B6FF"/>
<path d="M76.933 170.903L76.927 173.543L9.7561 134.809L9.76207 132.169L76.933 170.903Z" fill="#33B6FF"/>
<path d="M77.0702 123.199L77.0582 125.839L9.89331 87.1054L9.89928 84.4651L77.0702 123.199Z" fill="#33B6FF"/>
<path d="M77.1001 111.267L77.0941 113.913L9.9292 75.1794L9.93517 72.5332L77.1001 111.267Z" fill="#33B6FF"/>
<path d="M77.1359 99.3413L77.1299 101.988L9.95898 63.2535L9.97092 60.6073L77.1359 99.3413Z" fill="#33B6FF"/>
<path d="M77.0343 135.125L77.0283 137.765L9.85742 99.0314L9.86936 96.3911L77.0343 135.125Z" fill="#33B6FF"/>
<path d="M76.8972 182.823L76.8912 185.469L9.72632 146.741L9.73229 144.089L76.8972 182.823Z" fill="#33B6FF"/>
<path d="M76.9689 158.977L76.9569 161.617L9.79199 122.883L9.79796 120.243L76.9689 158.977Z" fill="#33B6FF"/>
<path d="M76.9988 147.045L76.9928 149.691L9.82788 110.963L9.83385 108.311L76.9988 147.045Z" fill="#33B6FF"/>
<path d="M76.8673 194.755L76.8554 197.401L9.69043 158.667L9.6964 156.021L76.8673 194.755Z" fill="#33B6FF"/>
<path d="M0.417725 43.651L14.7386 35.3428L92.3757 80.299L89.8337 81.7771C86.2589 83.8484 82.1995 84.9393 78.0667 84.9393C73.934 84.9393 69.8746 83.8484 66.2998 81.7771L0.417725 43.651Z" fill="#E6E9EF"/>
<path d="M92.3639 80.2991L199.031 141.627L184.71 149.93L92.3937 96.85C90.9328 96.018 89.7178 94.8153 88.8717 93.3637C88.0257 91.912 87.5785 90.2629 87.5755 88.5832C87.5724 86.9035 88.0137 85.2527 88.8545 83.7981C89.6953 82.3434 90.906 81.1363 92.3639 80.2991Z" fill="#E6E9EF"/>
<path d="M184.721 149.93L199.03 141.628L198.607 289.698L184.304 298L184.721 149.93Z" fill="#C1C4D3"/>
<path d="M119.293 86.5035C117.461 89.5371 115.528 91.5754 113.069 94.1203C112.717 94.4779 111.822 94.168 111.434 94.0548C110.736 93.8521 110.331 93.578 109.573 93.876C109.149 94.0746 108.739 94.2995 108.344 94.5495C107.733 94.8957 107.076 95.1526 106.392 95.3123C106.607 94.9009 106.846 94.5028 107.108 94.1203C108.23 92.4873 109.871 91.3489 111.142 89.8232C112.508 88.2012 113.755 86.4822 114.871 84.6797C116.423 81.4971 118.112 76.1986 118.81 74.1007C120.003 70.5605 121.119 65.3216 121.972 62.8661C122.826 60.4106 124.359 59.5583 125.869 59.2901C127.659 58.9742 128.739 59.5106 128.309 61.5966C127.563 65.268 123.935 79.4647 119.293 86.5035Z" fill="#FFCEA9"/>
<path d="M123.476 143.094C121.972 144.286 119.758 143.201 119.645 143.314C117.88 144.946 116.029 146.484 114.102 147.921C113.165 148.66 111.715 149.644 111.971 151.056C112.443 153.583 116.494 152.808 118.022 152.034C119.549 151.259 120.803 149.977 122.247 149.054C123.279 148.41 124.293 148.082 124.454 146.777C124.556 146.02 123.738 143.04 123.476 143.094Z" fill="#38226D"/>
<path d="M124.436 146.282C124.24 147.528 123.243 147.874 122.211 148.505C120.743 149.423 119.448 150.734 117.92 151.485C116.506 152.2 112.98 152.91 111.989 151.104C112.526 153.541 116.512 152.779 118.022 152.01C119.532 151.241 120.803 149.954 122.247 149.03C123.279 148.386 124.293 148.058 124.454 146.753C124.464 146.596 124.458 146.438 124.436 146.282Z" fill="#9C73FF"/>
<path d="M108.236 134.326C106.738 135.548 104.107 134.213 103.993 134.326C102.432 135.912 100.778 137.405 99.0408 138.796C98.104 139.53 96.654 140.513 96.9106 141.931C97.382 144.458 101.434 143.678 102.967 142.909C104.501 142.14 105.742 140.853 107.192 139.929C108.224 139.291 109.238 138.957 109.4 137.658C109.495 136.895 108.505 134.297 108.236 134.326Z" fill="#38226D"/>
<path d="M109.352 137.33C109.155 138.582 108.159 138.922 107.126 139.559C105.658 140.471 104.364 141.788 102.836 142.539C101.422 143.255 97.8953 143.964 96.9048 142.158C97.4478 144.596 101.428 143.833 102.937 143.07C104.447 142.307 105.718 141.014 107.162 140.09C108.194 139.452 109.209 139.118 109.37 137.819C109.381 137.656 109.375 137.492 109.352 137.33Z" fill="#9C73FF"/>
<path d="M143.561 95.0023C145.226 105.391 140.577 109.265 134.61 111.476C130.29 113.061 124.114 115.505 124.114 115.505C124.114 115.505 124.198 117.787 124.246 122.901C124.287 127.407 123.697 143.862 123.697 143.862C123.697 143.862 121.208 145.15 119.096 143.809C119.096 143.809 116.673 131.203 116.16 125.523C115.462 117.811 114.281 112.769 114.674 111.112C115.021 109.646 123.458 105.504 126.131 103.287L108.463 109.205C108.814 111.12 108.984 113.063 108.97 115.01C108.809 121.125 108.475 134.362 108.475 134.362C108.475 134.362 106.046 136.114 103.981 134.398C103.981 134.398 99.5361 108.174 100.073 104.717C100.586 101.421 116.184 94.6924 118.899 92.3739C119.38 91.9858 119.937 91.7025 120.534 91.5424C121.131 91.3823 121.755 91.3488 122.366 91.4442L143.561 95.0023Z" fill="#E26D6D"/>
<path d="M137.409 55.8928C137.409 55.8928 137.158 60.8396 137.266 61.2568C137.373 61.674 139.539 63.1461 140.172 63.6408C140.804 64.1355 136.747 68.1585 134.801 69.0585C132.856 69.9584 126.585 67.5863 126.447 64.5169C126.31 61.4475 127.522 58.8788 128.476 58.7477C129.431 58.6165 137.409 55.8928 137.409 55.8928Z" fill="#FFCEA9"/>
<path d="M137.964 62.1331C137.964 62.1331 134.384 67.4971 129.353 67.9858C127.772 66.4302 127.629 60.8874 129.819 59.1173C129.819 59.1173 127.808 57.4962 126.429 57.8121C124.95 58.7055 123.848 60.1089 123.333 61.7576C122.051 65.4353 121.444 69.3138 121.542 73.2067C121.626 78.4575 121.542 91.7304 121.542 91.7304C121.542 91.7304 122.294 96.8024 126.823 99.3294C130.447 101.373 134.715 101.959 138.757 100.968C141.299 100.372 142.242 98.9539 143.119 97.1123C142.893 93.435 141.431 85.8598 142.045 81.2349C142.66 76.6099 143.638 73.1531 143.895 69.4102C144.152 65.6673 143.4 65.7508 141.508 64.4157C140.383 63.5706 139.199 62.8077 137.964 62.1331Z" fill="#F4F4F4"/>
<path d="M139.121 106.672L139.115 107.334L122.432 117.019V116.357L139.121 106.672Z" fill="#1F232B"/>
<path d="M122.431 116.357V117.019L96.4868 102.059L96.4928 101.398L122.431 116.357Z" fill="#2D323E"/>
<path d="M139.121 106.672L122.432 116.357L96.4929 101.398L113.177 91.7125L139.121 106.672Z" fill="#323846"/>
<path d="M137.349 104.431L122.103 113.282L110.82 107.435L126.608 98.2267L137.349 104.431Z" fill="#DADCE5"/>
<path d="M125.714 98.5605L126.018 99.8777L110.241 108.412L98.3965 99.5976L113.636 90.7469L124.616 97.0824C124.891 97.2395 125.131 97.452 125.32 97.7064C125.509 97.9608 125.643 98.2517 125.714 98.5605Z" fill="#F4F6F9"/>
<path d="M126.077 98.5785L126.071 100.557L111.16 108.77L110.838 107.423L126.077 98.5785Z" fill="#DADCE5"/>
<path d="M122.103 113.282V115.266L110.253 108.43C110.252 108.228 110.304 108.029 110.404 107.854C110.505 107.679 110.65 107.533 110.825 107.432C111.001 107.331 111.199 107.278 111.402 107.278C111.604 107.279 111.803 107.333 111.977 107.435L122.103 113.282Z" fill="#E6E9EF"/>
<path d="M110.241 107.495V108.412L98.3904 101.582V99.5975L109.316 105.897C109.597 106.059 109.831 106.291 109.993 106.572C110.156 106.852 110.241 107.171 110.241 107.495Z" fill="#E6E9EF"/>
<path d="M120.958 99.1684L120.677 99.3293L111.721 94.168L111.864 94.0845L112.001 94.0011L120.958 99.1684Z" fill="#C1C4D3"/>
<path d="M122.676 98.1671L122.396 98.334L113.439 93.1667L113.577 93.0892L113.72 93.0057L122.676 98.1671Z" fill="#C1C4D3"/>
<path d="M119.245 100.164L118.953 100.331L109.996 95.1633L110.146 95.0799L110.289 94.9965L119.245 100.164Z" fill="#C1C4D3"/>
<path d="M117.527 101.159L117.24 101.326L108.284 96.1586L108.421 96.0811L108.564 95.9977L117.527 101.159Z" fill="#C1C4D3"/>
<path d="M115.808 102.154L115.522 102.321L106.565 97.1599L106.709 97.0765L106.852 96.993L115.808 102.154Z" fill="#C1C4D3"/>
<path d="M114.09 103.156L113.803 103.323L104.841 98.1553L104.99 98.0718L105.133 97.9884L114.09 103.156Z" fill="#C1C4D3"/>
<path d="M112.371 104.151L112.085 104.318L103.128 99.1505L103.271 99.0671L103.415 98.9896L112.371 104.151Z" fill="#C1C4D3"/>
<path d="M110.653 105.146L110.366 105.319L101.41 100.152L101.553 100.068L101.696 99.985L110.653 105.146Z" fill="#C1C4D3"/>
<path d="M134.157 105.003L133.87 105.164L124.92 100.003L125.063 99.9194L125.206 99.8419L134.157 105.003Z" fill="#C1C4D3"/>
<path d="M132.444 105.999L132.152 106.166L123.201 101.004L123.344 100.921L123.488 100.837L132.444 105.999Z" fill="#C1C4D3"/>
<path d="M130.72 106.994L130.439 107.161L121.483 101.999L121.626 101.916L121.769 101.833L130.72 106.994Z" fill="#C1C4D3"/>
<path d="M129.001 107.995L128.721 108.156L119.764 102.995L119.914 102.911L120.051 102.834L129.001 107.995Z" fill="#C1C4D3"/>
<path d="M125.564 109.986L125.284 110.153L116.333 104.991L116.47 104.908L116.614 104.825L125.564 109.986Z" fill="#C1C4D3"/>
<path d="M127.289 108.991L126.996 109.157L118.046 103.996L118.189 103.913L118.332 103.829L127.289 108.991Z" fill="#C1C4D3"/>
<path d="M123.846 110.987L123.565 111.154L114.609 105.987L114.752 105.903L114.895 105.826L123.846 110.987Z" fill="#C1C4D3"/>
<path d="M122.133 111.982L121.841 112.149L112.89 106.988L113.034 106.904L113.183 106.821L122.133 111.982Z" fill="#C1C4D3"/>
<path d="M137.349 104.431V106.416L122.133 115.266V113.282L137.349 104.431Z" fill="#C1C4D3"/>
<path d="M132.2 104.771C133.083 104.336 133.727 103.674 135.016 103.156C135.917 102.869 136.736 102.37 137.403 101.701C138.28 100.837 139.724 97.5771 140.757 94.3944C141.783 90.8083 142.187 87.0729 141.95 83.3506C141.514 78.8865 139.903 72.6226 139.497 70.0836C139.092 67.5446 139.921 66.5076 141.115 65.548C142.517 64.4395 144.456 64.9521 145.488 68.528C146.824 73.5041 147.599 78.6138 147.798 83.7618C147.839 87.5851 147.248 91.389 146.049 95.0202C144.969 98.3936 143.561 100.819 141.753 103.865C141.264 104.693 141.103 105.432 140.351 107.125C139.623 108.826 138.492 110.325 137.057 111.494C135.798 112.4 135.201 112.525 134.909 112.352C134.616 112.179 134.61 111.756 135.142 111.255C136.032 110.556 136.792 109.704 137.385 108.74C137.385 108.74 136.287 109.843 135.565 110.445C134.927 110.984 134.218 111.435 133.459 111.786C132.725 112.108 131.699 111.488 132.224 110.987C132.749 110.486 133.28 110.254 134.33 109.342C134.891 108.864 135.392 108.32 135.822 107.721C135.086 108.287 134.305 108.793 133.489 109.235C132.851 109.635 132.111 109.842 131.358 109.831C130.971 109.831 130.499 109.277 131.227 108.746C131.955 108.216 132.91 107.947 134.014 106.845C134.819 106.046 135.273 105.373 135.046 105.355C134.819 105.337 134.384 105.844 133.441 106.142C132.498 106.44 131.484 106.142 131.364 105.653C131.245 105.164 131.317 105.206 132.2 104.771Z" fill="#FFCEA9"/>
<path d="M126.197 48.5144C126.793 44.6761 129.562 41.7617 133.524 41.9584C134.532 42.0146 135.518 42.2692 136.427 42.7076C137.336 43.1459 138.148 43.7594 138.819 44.5127C139.489 45.266 140.004 46.1442 140.334 47.0969C140.663 48.0496 140.801 49.058 140.738 50.064C140.673 51.2291 140.338 52.3634 139.761 53.3778C139.183 54.3921 138.378 55.2591 137.409 55.9107C137.275 56.492 137.075 57.056 136.812 57.5914C135.41 59.2304 131.173 60.2437 129.95 60.0708C128.387 59.8443 127.563 59.1947 126.793 57.4842C125.463 54.4446 125.904 50.4156 126.197 48.5144Z" fill="#FFCEA9"/>
<path d="M137.409 55.8869L137.045 52.5374C137.045 52.5374 139.79 45.4509 133.309 46.8098C129.037 47.7098 127.939 48.0972 126.662 45.2364C125.385 42.3756 129.95 39.7949 135.398 40.5101C137.274 40.7069 139.007 41.6002 140.255 43.0131C141.502 44.426 142.173 46.2553 142.135 48.1389C142.015 50.2487 141.419 54.5101 137.409 55.8869Z" fill="#3A2C6D"/>
<path d="M148.495 75.1257C148.495 75.1257 144.963 78.6362 140.78 77.623C140.183 77.2177 138.745 69.0108 138.745 69.0108C138.745 69.0108 138.745 64.4633 142.236 64.5825C145.727 64.7017 148.495 75.1257 148.495 75.1257Z" fill="#EDEDED"/>
<path d="M121.805 68.3136C121.805 68.3136 119.961 68.2242 119.198 67.1216C119.335 65.2859 121.692 58.3067 126.43 57.7882C125.131 58.6899 124.1 59.9255 123.446 61.3642C122.605 63.486 121.805 68.3136 121.805 68.3136Z" fill="#EDEDED"/>
<path d="M127.134 2.15747V4.82755L129.443 3.48655L127.134 2.15747Z" fill="#C1C4D3"/>
<path d="M102.114 16.694V19.364L104.423 18.023L102.114 16.694Z" fill="#C1C4D3"/>
<path d="M140.487 247.796C147.797 247.796 153.738 247.544 153.738 247.22C153.738 246.896 147.797 246.644 140.487 246.644C133.178 246.644 127.236 246.896 127.236 247.22C127.236 247.544 133.142 247.796 140.487 247.796Z" fill="#BA9C7E"/>
<path d="M150.211 179.777C146.43 188.779 143.729 198.213 142.181 207.863C140.669 217.513 140.236 227.308 140.993 237.066C141.425 242.539 142.217 247.94 143.369 253.305C143.585 254.277 145.062 253.881 144.846 252.909C142.793 243.439 141.929 233.789 142.181 224.103C142.433 214.489 143.837 204.875 146.358 195.585C147.762 190.328 149.563 185.179 151.687 180.173C151.867 179.813 151.507 179.309 151.147 179.237C150.715 179.129 150.355 179.381 150.211 179.777Z" fill="#4C7378"/>
<path d="M150.715 220.466C146.934 228.676 144.666 237.534 144.054 246.536C143.874 249.057 143.838 251.577 143.946 254.098C143.982 255.07 145.53 255.07 145.458 254.098C145.134 245.312 146.43 236.49 149.239 228.172C150.031 225.832 150.967 223.491 152.011 221.223C152.444 220.358 151.111 219.566 150.715 220.466Z" fill="#4C7378"/>
<path d="M131.417 181.793C133.829 190.147 135.558 198.681 136.818 207.287C138.078 215.857 138.907 224.535 139.555 233.176C139.915 238.074 140.275 242.971 140.563 247.904C140.635 248.876 142.147 248.876 142.075 247.904C141.499 239.19 140.923 230.44 140.059 221.726C139.195 213.048 138.042 204.37 136.35 195.8C135.378 190.939 134.226 186.15 132.857 181.397C132.605 180.425 131.165 180.821 131.417 181.793Z" fill="#4C7378"/>
<path d="M122.448 206.891C124.537 209.016 125.833 211.753 126.949 214.489C128.21 217.514 129.29 220.574 130.226 223.707C132.098 229.9 133.467 236.238 134.151 242.683C134.547 246.284 134.763 249.921 134.799 253.558C134.799 254.53 136.311 254.53 136.311 253.558C136.275 246.932 135.591 240.307 134.295 233.789C133.035 227.308 131.126 220.898 128.642 214.741C127.345 211.536 125.941 208.332 123.456 205.811C122.844 205.091 121.728 206.171 122.448 206.891Z" fill="#4C7378"/>
<path d="M133 237.281C131.883 235.877 130.443 234.941 129.291 234.472C128.103 234.004 127.166 234.004 126.878 234.292C126.59 234.617 126.662 235.517 127.058 236.633C127.454 237.749 128.139 239.117 129.147 240.342C130.155 241.602 131.343 242.502 132.424 243.114C133.468 243.726 134.368 243.979 134.62 243.834C134.944 243.618 135.124 242.718 134.908 241.458C134.764 240.234 134.152 238.649 133 237.281Z" fill="#4C7378"/>
<path d="M137.858 226.875C138.794 222.266 137.93 218.234 137.066 218.09C136.201 217.946 133.969 221.366 133.033 225.903C132.132 230.44 133.069 234.509 133.681 234.653C134.437 234.833 136.921 231.52 137.858 226.875Z" fill="#689399"/>
<path d="M133.717 234.618C134.689 233.645 132.385 229.829 128.604 226.12C124.823 222.411 120.97 220.179 120.034 221.151C119.062 222.123 121.366 225.94 125.147 229.649C128.892 233.357 132.745 235.59 133.717 234.618Z" fill="#4C7378"/>
<path d="M140.741 240.126C141.173 238.217 141.425 236.345 141.533 234.652C141.641 232.96 141.569 231.412 141.425 230.151C141.137 227.559 140.525 226.01 140.093 226.01C139.661 226.01 139.049 227.523 138.328 229.899C137.968 231.088 137.572 232.492 137.212 234.004C136.816 235.553 136.384 237.245 135.988 239.009C135.556 240.774 135.196 242.502 134.908 244.05C134.584 245.599 134.331 247.075 134.115 248.299C133.719 250.748 133.611 252.404 133.899 252.548C134.259 252.728 135.484 251.576 136.924 249.416C137.644 248.335 138.364 246.967 139.049 245.419C139.661 243.798 140.273 242.034 140.741 240.126Z" fill="#57848A"/>
<path d="M150.751 242.035C152.228 239.442 153.308 236.957 153.92 235.013C154.568 233.069 154.712 231.736 154.352 231.484C153.992 231.232 152.804 231.916 151.292 233.321C149.779 234.725 147.979 236.885 146.467 239.55C144.954 242.215 144.054 244.915 143.658 246.932C143.442 247.94 143.37 248.804 143.37 249.416C143.37 249.596 143.298 249.848 143.442 250.172C143.478 250.244 143.514 250.316 143.55 250.352C143.586 250.424 143.73 250.496 143.802 250.532C143.982 250.568 144.09 250.532 144.162 250.496C144.306 250.388 144.414 250.244 144.342 250.136C144.306 250.028 144.234 250.064 144.198 250.064C144.162 250.1 144.162 250.1 144.126 250.1C144.09 250.136 144.162 250.1 144.126 250.1C144.126 250.1 144.09 250.1 144.09 250.064C144.054 250.028 144.054 249.992 144.054 249.992C144.054 249.992 144.054 250.028 144.054 250.1C144.054 250.1 144.054 250.1 144.054 250.136L144.162 250.064C144.162 250.064 144.162 250.064 144.198 250.064C144.234 250.064 144.342 250.028 144.522 250.1H144.558H144.594H144.63C144.666 250.1 144.666 250.1 144.702 250.064C145.206 249.704 145.782 249.092 146.431 248.336C147.691 246.824 149.311 244.591 150.751 242.035Z" fill="#57848A"/>
<path d="M146.862 230.369C146.502 227.092 145.674 224.211 144.846 222.195C144.017 220.178 143.225 218.954 142.793 219.026C142.361 219.098 141.965 220.502 141.749 222.663C141.569 224.823 141.569 227.776 141.929 230.945C142.109 232.529 142.361 234.041 142.685 235.374C143.009 236.742 143.333 237.93 143.549 238.902C143.801 239.875 143.981 240.703 144.161 241.315C144.305 241.891 144.449 242.287 144.593 242.323C144.773 242.359 145.134 242.143 145.494 241.567C145.854 240.991 146.286 240.091 146.538 238.938C146.826 237.786 146.97 236.454 147.006 235.014C147.078 233.609 147.042 232.025 146.862 230.369Z" fill="#4C7378"/>
<path d="M126.482 214.596C124.574 212.76 122.521 211.499 120.865 210.779C119.209 210.059 118.02 209.879 117.732 210.239C117.48 210.563 117.912 211.715 118.848 213.156C119.785 214.632 121.261 216.432 123.061 218.161C124.898 219.889 126.806 221.221 128.318 222.086C129.831 222.95 130.983 223.346 131.235 223.13C131.559 222.878 131.307 221.654 130.515 220.033C129.795 218.413 128.427 216.432 126.482 214.596Z" fill="#689399"/>
<path d="M123.637 202.102C121.369 198.069 118.056 195.765 117.3 196.233C116.58 196.665 117.12 200.626 119.316 204.551C121.513 208.476 124.79 210.888 125.366 210.6C126.086 210.204 125.906 206.135 123.637 202.102Z" fill="#4C7378"/>
<path d="M132.065 209.807C131.669 207.071 130.696 204.694 129.724 203.146C128.752 201.562 127.78 200.769 127.384 200.949C126.988 201.093 126.771 202.282 126.735 204.046C126.699 205.775 126.843 208.079 127.168 210.528C127.528 213.012 128.068 215.209 128.608 216.865C129.148 218.521 129.688 219.637 130.012 219.637C130.408 219.673 131.092 218.629 131.632 216.865C132.137 215.065 132.461 212.508 132.065 209.807Z" fill="#57848A"/>
<path d="M157.232 224.895C159.501 223.347 161.409 221.69 162.705 220.322C164.002 218.954 164.722 217.873 164.47 217.477C164.254 217.117 162.957 217.117 161.121 217.657C159.249 218.161 156.836 219.206 154.46 220.826C152.083 222.446 150.283 224.391 149.13 225.939C148.014 227.523 147.546 228.712 147.726 228.964C147.978 229.288 149.238 229 151.003 228.316C152.767 227.631 155 226.443 157.232 224.895Z" fill="#689399"/>
<path d="M158.602 212.868C160.187 209.556 161.087 206.315 161.411 203.902C161.771 201.49 161.627 199.906 161.231 199.762C160.835 199.617 159.791 200.806 158.494 202.786C157.198 204.803 155.65 207.575 154.138 210.708C152.625 213.877 151.509 216.865 150.789 219.134C150.069 221.402 149.817 222.951 150.069 223.131C150.393 223.347 151.725 222.446 153.381 220.646C155.074 218.882 157.018 216.181 158.602 212.868Z" fill="#4C7378"/>
<path d="M154.279 213.625C155.323 207.792 155.107 202.859 153.775 202.643C152.443 202.391 150.498 206.928 149.418 212.761C148.374 218.594 148.59 223.527 149.922 223.743C151.254 223.959 153.199 219.458 154.279 213.625Z" fill="#689399"/>
<path d="M155.791 174.376C157.123 171.532 158.059 168.831 158.6 166.743C159.14 164.69 159.248 163.25 158.852 163.034C158.492 162.818 157.303 163.646 155.827 165.266C154.351 166.887 152.658 169.299 151.29 172.252C149.886 175.204 149.165 178.049 148.877 180.209C148.589 182.37 148.697 183.81 148.986 183.918C149.346 184.062 150.39 183.054 151.65 181.362C152.946 179.669 154.459 177.221 155.791 174.376Z" fill="#689399"/>
<path d="M152.014 174.376C152.194 171.424 152.122 168.723 151.834 166.671C151.582 164.654 151.149 163.358 150.717 163.286C150.285 163.214 149.493 164.33 148.737 166.275C147.981 168.219 147.261 170.92 147.081 174.016C146.865 177.113 147.261 179.922 147.801 181.938C148.305 183.954 148.989 185.179 149.313 185.179C149.709 185.179 150.285 183.918 150.825 181.974C151.329 179.994 151.798 177.329 152.014 174.376Z" fill="#4C7378"/>
<path d="M155.538 188.491C156.438 187.015 157.194 185.539 157.735 184.17C158.275 182.766 158.671 181.506 158.923 180.354C159.391 178.121 159.283 176.645 158.887 176.465C158.491 176.285 157.446 177.329 156.078 179.057C155.43 179.922 154.638 180.93 153.846 182.082C153.054 183.234 152.189 184.495 151.361 185.863C150.497 187.195 149.741 188.527 149.057 189.752C148.373 190.976 147.796 192.092 147.328 193.1C146.392 195.081 145.888 196.449 146.14 196.665C146.428 196.917 147.796 196.377 149.633 195.009C150.533 194.325 151.577 193.424 152.586 192.344C153.63 191.264 154.638 189.968 155.538 188.491Z" fill="#689399"/>
<path d="M144.486 186.584C144.198 185.107 143.91 183.703 143.622 182.479C143.514 181.831 143.334 181.255 143.226 180.678C143.154 180.39 143.082 180.138 143.046 179.85C143.01 179.598 142.938 179.346 142.866 179.094C142.433 177.15 142.073 175.817 141.605 175.745C141.209 175.673 140.345 176.826 139.733 179.022C139.661 179.274 139.589 179.598 139.517 179.886C139.445 180.21 139.409 180.498 139.373 180.786C139.265 181.435 139.229 182.119 139.193 182.839C139.157 184.279 139.301 185.864 139.553 187.448C140.165 190.653 141.281 193.281 142.217 195.154C143.19 197.026 144.018 198.142 144.306 198.106C144.702 198.034 145.098 196.666 145.17 194.541C145.314 192.417 145.026 189.572 144.486 186.584Z" fill="#4C7378"/>
<path d="M151.545 202.607C153.274 200.194 154.426 197.746 155.038 195.837C155.65 193.929 155.686 192.597 155.29 192.38C154.93 192.164 153.814 192.885 152.374 194.181C150.933 195.513 149.205 197.422 147.513 199.726C145.856 201.995 144.596 204.299 143.804 206.099C143.012 207.9 142.688 209.16 142.94 209.376C143.264 209.628 144.488 209.16 146.108 208.044C147.801 206.892 149.817 205.019 151.545 202.607Z" fill="#57848A"/>
<path d="M132.425 177.185C131.021 174.268 129.256 172 127.78 170.487C126.304 168.975 125.116 168.255 124.756 168.471C124.395 168.687 124.503 170.055 125.116 172.072C125.692 174.088 126.7 176.645 127.996 179.309C128.644 180.642 129.257 181.866 129.869 183.018C130.157 183.594 130.445 184.134 130.733 184.602C131.021 185.107 131.273 185.575 131.525 186.007C132.497 187.735 133.253 188.887 133.577 188.851C133.938 188.815 134.442 187.447 134.442 185.287C134.442 184.746 134.406 184.134 134.334 183.522C134.262 182.874 134.154 182.226 133.974 181.506C133.613 180.137 133.109 178.661 132.425 177.185Z" fill="#4C7378"/>
<path d="M132.313 187.879C128.856 183.522 124.68 181.181 124.031 181.793C123.383 182.369 125.076 186.726 128.46 190.975C131.809 195.224 135.878 197.709 136.382 197.313C137.03 196.88 135.77 192.236 132.313 187.879Z" fill="#4C7378"/>
<path d="M134.188 197.637C132.856 196.233 131.38 195.152 130.155 194.468C128.931 193.784 127.959 193.532 127.599 193.784C127.275 194.036 127.275 195.08 127.743 196.449C128.211 197.817 129.147 199.545 130.624 201.022C132.1 202.534 133.792 203.506 135.125 204.01C136.493 204.514 137.537 204.55 137.753 204.334C138.005 204.01 137.789 203.038 137.177 201.778C136.529 200.553 135.557 199.041 134.188 197.637Z" fill="#689399"/>
<path d="M136.888 210.744C135.304 207.827 133.611 205.271 132.279 203.434C130.947 201.634 129.867 200.554 129.543 200.698C129.219 200.806 129.254 202.21 129.795 204.371C130.335 206.495 131.379 209.412 133.035 212.4C134.692 215.389 136.636 217.874 138.22 219.566C139.805 221.258 141.065 222.194 141.317 222.05C141.641 221.87 141.317 220.538 140.525 218.45C139.733 216.397 138.509 213.661 136.888 210.744Z" fill="#689399"/>
<path d="M144.306 214.776C144.342 212.58 143.801 210.635 143.189 209.303C142.541 207.971 141.785 207.215 141.353 207.287C140.921 207.359 140.453 208.259 140.093 209.627C139.733 210.995 139.408 212.76 139.372 214.704C139.336 216.649 139.625 218.449 139.985 219.817C140.345 221.186 140.777 222.122 141.101 222.158C141.497 222.23 142.253 221.51 142.973 220.213C143.657 218.881 144.27 216.973 144.306 214.776Z" fill="#4C7378"/>
<path d="M146.251 222.591C147.259 220.395 147.583 218.162 147.547 216.506C147.475 214.85 147.043 213.841 146.647 213.733C146.215 213.625 145.459 214.417 144.558 215.678C143.658 216.938 142.686 218.63 141.786 220.575C140.886 222.519 140.31 224.392 139.986 225.904C139.625 227.416 139.553 228.533 139.805 228.713C140.13 228.965 141.21 228.605 142.47 227.56C143.73 226.516 145.207 224.824 146.251 222.591Z" fill="#689399"/>
<path d="M139.803 184.422C139.911 180.857 139.479 177.689 138.903 175.384C138.327 173.08 137.643 171.711 137.174 171.747C136.742 171.783 136.202 173.224 135.77 175.492C135.338 177.761 134.942 180.893 134.87 184.314C134.762 187.735 135.05 190.867 135.374 193.172C135.734 195.476 136.166 196.953 136.49 196.989C136.886 197.025 137.679 195.693 138.363 193.424C139.083 191.12 139.731 187.951 139.803 184.422Z" fill="#689399"/>
<path d="M157.771 247.256C157.735 247.688 149.813 248.048 140.055 248.048C130.333 248.048 122.375 247.688 122.339 247.256C122.339 247.292 122.339 247.364 122.339 247.436L125.328 279.014L125.832 284.308C125.868 285.244 132.205 286 140.055 286C147.904 286 154.278 285.244 154.278 284.308L154.386 283.191C154.386 283.155 154.386 283.155 154.386 283.119L154.638 280.671L157.807 247.4C157.771 247.364 157.771 247.292 157.771 247.256Z" fill="#DEC7B2"/>
<path d="M155.574 270.732L155.718 269.328C155.682 269.364 155.61 269.364 155.538 269.364C150.209 271.344 144.916 273.325 139.623 275.305C136.562 276.422 133.502 277.574 130.477 278.726C130.045 278.906 129.829 279.446 130.189 279.77C132.997 282.615 137.246 282.723 140.919 283.695C142.071 284.019 143.224 284.415 144.196 285.063H146.212C143.872 282.795 140.271 282.255 137.102 281.571C135.266 281.175 133.394 280.67 131.881 279.554C137.174 277.574 142.432 275.629 147.725 273.649C150.353 272.677 152.946 271.705 155.574 270.732Z" fill="#EBDBCD"/>
<path d="M141.748 258.13C146.862 256.69 152.011 255.286 157.16 253.881L157.412 251.325C146.465 251.577 135.519 252.045 124.609 252.801C124.033 252.837 123.492 252.873 122.916 252.909L123.024 254.17C132.494 253.521 141.964 253.017 151.434 252.729C153.235 252.693 155.071 252.621 156.908 252.585C152.119 253.918 147.366 255.214 142.577 256.546C136.563 258.202 130.586 260.003 124.969 262.631C124.609 262.811 124.249 262.955 123.925 263.136L124.069 264.504C124.357 264.36 124.645 264.216 124.933 264.072C130.262 261.515 135.987 259.751 141.748 258.13Z" fill="#EBDBCD"/>
<path d="M128.606 269.076C134.62 268.968 140.561 267.708 146.43 266.412C149.671 265.692 152.912 264.935 156.152 264.395L156.26 263.099C148.303 264.503 140.417 266.88 132.351 267.6C129.687 267.852 126.95 267.888 124.25 267.636L124.357 268.932C125.834 269.04 127.202 269.076 128.606 269.076Z" fill="#EBDBCD"/>
<path d="M153.739 247.22C153.739 247.544 147.798 247.796 140.488 247.796C133.179 247.796 127.238 247.544 127.238 247.22H122.376C122.376 247.22 122.376 247.22 122.376 247.256C122.412 247.688 130.334 248.048 140.092 248.048C149.814 248.048 157.772 247.688 157.808 247.256C157.808 247.256 157.808 247.256 157.808 247.22H153.739Z" fill="#E8D4C1"/>
</g>
<defs>
<clipPath id="clip0_2_285">
<rect width="223" height="298" fill="white"/>
</clipPath>
</defs>
</svg>
